<?xml version="1.0" encoding="utf-8"?>
<!-- Generator: Adobe Illustrator 18.1.1, SVG Export Plug-In . SVG Version: 6.00 Build 0)  -->
<svg version="1.1" id="Layer_1" xmlns="http://www.w3.org/2000/svg" xmlns:xlink="http://www.w3.org/1999/xlink" x="0px" y="0px"
	 width="102.1px" height="29px" viewBox="0 0 102.1 29" enable-background="new 0 0 102.1 29" xml:space="preserve">
<g>
	<path fill="#FFFFFF" d="M7.4,23.8c-2.2,0-3.9-0.5-5.2-1.6C0.7,21,0,19.4,0,17.3v-11h2.7v11c0,2.7,1.5,4,4.7,4
		c1.9,0,3.2-0.5,4.1-1.6c0.9-1,1.3-2.4,1.3-4.2V6.3h2.7v17.2h-2.7V22C11.4,23.2,9.6,23.8,7.4,23.8z"/>
	<path fill="#FFFFFF" d="M19,29V6.3h2.7v1.9c1.5-1.5,3.5-2.3,6.1-2.3c2.8,0,5,0.9,6.5,2.6c1.5,1.6,2.2,3.8,2.2,6.4
		c0,2.7-0.8,5-2.3,6.6c-1.5,1.7-3.7,2.5-6.4,2.5c-2.5,0-4.6-0.8-6.1-2.3V29H19z M28,8.4c-1.9,0-3.4,0.6-4.6,1.8
		c-1.1,1.2-1.7,2.7-1.7,4.7c0,2.1,0.5,3.7,1.5,4.8c1,1.2,2.6,1.8,4.7,1.8c1.9,0,3.4-0.6,4.4-1.9c1-1.2,1.5-2.8,1.5-4.7
		c0-1.9-0.5-3.4-1.5-4.6C31.3,9.1,29.9,8.4,28,8.4z"/>
	<rect x="39.3" fill="#FFFFFF" width="2.7" height="23.4"/>
	<path fill="#FFFFFF" d="M53.6,23.8c-2.8,0-5-0.8-6.6-2.5c-1.6-1.7-2.4-3.8-2.4-6.4c0-2.7,0.8-4.9,2.5-6.5c1.7-1.6,3.9-2.4,6.6-2.4
		c2.7,0,4.9,0.8,6.6,2.4c1.6,1.6,2.5,3.8,2.5,6.5c0,2.7-0.8,4.9-2.5,6.5C58.5,23,56.3,23.8,53.6,23.8z M53.6,8.4
		c-2,0-3.5,0.6-4.7,1.7c-1.1,1.1-1.7,2.7-1.7,4.7c0,2,0.6,3.5,1.7,4.7c1.1,1.1,2.7,1.7,4.7,1.7s3.5-0.6,4.7-1.7
		c1.2-1.2,1.7-2.7,1.7-4.7c0-1.9-0.6-3.5-1.7-4.7C57.2,9,55.7,8.4,53.6,8.4z"/>
	<path fill="#FFFFFF" d="M72.9,23.8c-2.7,0-4.9-0.9-6.4-2.6c-1.5-1.6-2.2-3.8-2.2-6.3c0-2.6,0.8-4.8,2.2-6.4
		c1.6-1.7,3.8-2.6,6.5-2.6c2.6,0,4.6,0.8,6.1,2.3V6h2.7v17.5h-2.7v-2C77.6,23,75.5,23.8,72.9,23.8z M72.8,8.4
		c-1.9,0-3.4,0.6-4.5,1.9c-1,1.2-1.5,2.7-1.5,4.6c0,1.9,0.5,3.4,1.5,4.5c1.1,1.2,2.5,1.8,4.5,1.8c1.9,0,3.4-0.6,4.5-1.8
		c1.1-1.2,1.7-2.7,1.7-4.6c0-2-0.5-3.6-1.6-4.7C76.4,9,74.9,8.4,72.8,8.4z"/>
	<path fill="#FFFFFF" d="M93.2,23.8c-2.7,0-4.9-0.9-6.4-2.6c-1.5-1.7-2.2-3.8-2.2-6.4c0-2.6,0.8-4.8,2.2-6.5
		c1.6-1.8,3.8-2.6,6.5-2.6c2.6,0,4.6,0.8,6.1,2.3V0h2.7v23.4h-2.7v-2C97.9,23,95.8,23.8,93.2,23.8z M93.2,8.2
		c-1.9,0-3.3,0.6-4.4,1.9c-1,1.2-1.5,2.8-1.5,4.6c0,1.9,0.5,3.4,1.5,4.6c1.1,1.3,2.5,1.9,4.5,1.9c1.9,0,3.4-0.6,4.6-1.9
		c1.1-1.2,1.7-2.7,1.7-4.6c0-2-0.5-3.6-1.6-4.8C96.8,8.8,95.2,8.2,93.2,8.2z"/>
</g>
<g>
</g>
<g>
</g>
<g>
</g>
<g>
</g>
<g>
</g>
<g>
</g>
</svg>
